<svg xmlns="http://www.w3.org/2000/svg" height="20" viewBox="0 -960 960 960" width="20"><path d="M479.882-343q-63.382 0-107.632-44.833Q328-432.667 328-496v-229q0-63.333 44.368-107.667Q416.735-877 480.118-877q63.382 0 107.632 44.333Q632-788.333 632-725v229q0 63.333-44.368 108.167Q543.265-343 479.882-343ZM480-610.5ZM431.5-91v-102.5q-113.3-14.105-186.4-100.218Q172-379.831 172-496h98q0 87.68 61.55 148.84T480.428-286q87.327 0 148.45-61.425Q690-408.85 690-496h98q0 116.5-73.1 202.448-73.1 85.947-186.4 100.052V-91h-97ZM480-456q16.575 0 27.788-11.5Q519-479 519-496v-228.798q0-16.702-11.197-27.952Q496.605-764 480.053-764q-16.553 0-27.803 11.213Q441-741.575 441-725v229q0 17 11.212 28.5Q463.425-456 480-456Z"/></svg>