<svg xmlns="http://www.w3.org/2000/svg" height="20" viewBox="0 -960 960 960" width="20"><path d="M217.348-226.769v-47.961h36.268v-251.193q0-84.5 53.505-148 53.504-63.5 136.495-77.307v-48.33q0-15.154 10.452-25.604 10.453-10.45 25.769-10.45 15.317 0 25.932 10.45 10.615 10.45 10.615 25.604v48.33q83.077 13.807 136.634 77.307 53.558 63.5 53.558 148v251.193h36.269v47.961H217.348ZM480-489.692Zm-.28 371.691q-26.143 0-44.277-18.332-18.135-18.333-18.135-44.36h125.384q0 26.423-18.415 44.558-18.415 18.134-44.557 18.134ZM301.576-274.73h357.04v-251.193q0-74.589-52.059-126.506-52.06-51.918-126.644-51.918-74.585 0-126.461 51.918-51.876 51.917-51.876 126.506v251.193Z"/></svg>