<svg xmlns="http://www.w3.org/2000/svg" height="24" viewBox="0 -960 960 960" width="24"><path d="M187.523-128q-25.768 0-43.569-17.8-17.8-17.801-17.8-43.572v-347.41q0-25.771 17.8-43.572 17.801-17.8 43.569-17.8h584.954q25.768 0 43.569 17.8 17.8 17.801 17.8 43.572v347.41q0 25.771-17.8 43.572-17.801 17.8-43.569 17.8H187.523Zm.169-36.923h584.616q9.231 0 16.923-7.692 7.692-7.693 7.692-16.923v-347.078q0-9.23-7.692-16.923-7.692-7.692-16.923-7.692H187.692q-9.231 0-16.923 7.692-7.692 7.693-7.692 16.923v347.078q0 9.23 7.692 16.923 7.692 7.692 16.923 7.692Zm234.154-78.769 179.077-119.385-179.077-119.385v238.77ZM184.308-670.154v-36.923h591.384v36.923H184.308Zm118.769-108.923V-816h353.846v36.923H303.077Zm-140 614.154v-396.308 396.308Z"/></svg>