<svg xmlns="http://www.w3.org/2000/svg" height="20" viewBox="0 -960 960 960" width="20"><path d="M415.617-346.001h51.998v-108h108v-51.998h-108v-108h-51.998v108h-108v51.998h108v108Zm-177.692 134q-26.308 0-45.308-19-18.999-19-18.999-45.308v-407.382q0-27.008 18.999-45.658 19-18.65 45.308-18.65h407.382q27.008 0 45.658 18.65 18.65 18.65 18.65 45.658v171.077l124.767-124.768v314.764L709.615-447.386v171.077q0 26.308-18.65 45.308t-45.658 19H237.925Zm0-51.999h407.382q5.386 0 8.847-3.462 3.462-3.462 3.462-8.847v-407.382q0-5.385-3.462-8.847-3.461-3.462-8.847-3.462H237.925q-5.385 0-8.847 3.462-3.462 3.462-3.462 8.847v407.382q0 5.385 3.462 8.847Q232.54-264 237.925-264Zm-12.309 0v-432 432Z"/></svg>