<svg xmlns="http://www.w3.org/2000/svg" height="24" viewBox="0 -960 960 960" width="24"><path d="m625.231-308.308 26.461-26.461-152.923-153.075v-190.31h-36.923v205.846l163.385 164ZM480.183-126.154q-73.397 0-138.067-27.886t-112.508-75.69q-47.838-47.805-75.646-112.288t-27.808-137.799q0-73.397 27.886-138.067t75.69-112.508q47.805-47.838 112.288-75.646t137.799-27.808q73.397 0 138.067 27.886t112.508 75.69q47.838 47.805 75.646 112.288t27.808 137.799q0 73.397-27.886 138.067t-75.69 112.508q-47.805 47.838-112.288 75.646t-137.799 27.808ZM480-480Zm0 316.923q131.654 0 224.288-92.635Q796.923-348.346 796.923-480t-92.635-224.288Q611.654-796.923 480-796.923t-224.288 92.635Q163.077-611.654 163.077-480t92.635 224.288Q348.346-163.077 480-163.077Z"/></svg>