<svg xmlns="http://www.w3.org/2000/svg" height="24" viewBox="0 -960 960 960" width="24"><path d="M773.538-143.385 483.077-433.846 357.692-307.74q8.77 14.894 12.924 31.195 4.153 16.301 4.153 34.257 0 53.236-37.924 91.147-37.924 37.91-91.231 37.91-53.306 0-91.306-37.945-38-37.946-38-91.231t37.91-91.285q37.911-38 91.147-38 17.955 0 34.257 4.153 16.301 4.154 31.386 12.923L436.307-480 311.008-606q-15.085 8.769-31.386 12.923-16.302 4.154-34.257 4.154-53.236 0-91.147-37.924-37.91-37.924-37.91-91.231 0-53.307 37.945-91.307 37.946-38 91.231-38t91.285 37.911q38 37.911 38 91.147 0 17.955-4.153 34.256-4.154 16.302-12.924 31.157l486.001 486.145v23.384h-70.155ZM582.769-532.923 536-579.692l237.538-237.539h70.155v23.385L582.769-532.923Zm-337.231-92.923q38.077 0 65.193-27.116 27.115-27.115 27.115-65.192t-27.115-65.192q-27.116-27.115-65.193-27.115-38.076 0-65.192 27.115-27.115 27.115-27.115 65.192t27.115 65.192q27.116 27.116 65.192 27.116Zm238.154 144q-.5 0-.865.365-.365.366-.365.866t.365.865q.365.365.865.365t.866-.365q.365-.365.365-.865t-.365-.866q-.366-.365-.866-.365ZM245.538-150.154q38.077 0 65.193-27.115 27.115-27.116 27.115-65.193 0-38.076-27.115-65.192-27.116-27.115-65.193-27.115-38.076 0-65.192 27.115-27.115 27.116-27.115 65.192 0 38.077 27.115 65.193 27.116 27.115 65.192 27.115Z"/></svg>