<svg xmlns="http://www.w3.org/2000/svg" height="24" viewBox="0 -960 960 960" width="24"><path d="M202.462-231.846q53.6-52.428 124.572-82.599 70.971-30.17 152.911-30.17t152.951 30.17q71.011 30.171 124.642 82.599v-501.077q0-9.231-7.692-16.923-7.692-7.692-16.923-7.692H227.077q-9.231 0-16.923 7.692-7.692 7.692-7.692 16.923v501.077Zm277.649-202q49.081 0 83.254-34.284 34.174-34.285 34.174-83.366t-34.285-83.254q-34.284-34.173-83.365-34.173-49.081 0-83.254 34.284-34.174 34.284-34.174 83.365 0 49.082 34.285 83.255 34.284 34.173 83.365 34.173ZM226.895-165.538q-25.756 0-43.556-17.801-17.801-17.8-17.801-43.556v-506.21q0-25.756 17.801-43.556 17.8-17.801 43.556-17.801h506.21q25.756 0 43.556 17.801 17.801 17.8 17.801 43.556v506.21q0 25.756-17.801 43.556-17.8 17.801-43.556 17.801h-506.21Zm7.875-36.924h490.46v-7.034q-52.769-50.004-115.298-74.1-62.53-24.096-129.932-24.096-66 0-128.538 23.711-62.539 23.712-116.692 72.947v8.572Zm245.171-268.307q-32.973 0-56.765-23.851-23.791-23.85-23.791-56.824 0-32.973 23.85-56.764Q447.086-632 480.059-632t56.765 23.85q23.791 23.851 23.791 56.824t-23.85 56.765q-23.851 23.792-56.824 23.792Zm.059-23.923Z"/></svg>